<?xml version="1.0" encoding="utf-8"?>
<!-- Generator: Adobe Illustrator 16.0.0, SVG Export Plug-In . SVG Version: 6.00 Build 0)  -->
<!DOCTYPE svg PUBLIC "-//W3C//DTD SVG 1.1//EN" "http://www.w3.org/Graphics/SVG/1.1/DTD/svg11.dtd">
<svg version="1.1" id="Layer_1" xmlns="http://www.w3.org/2000/svg" xmlns:xlink="http://www.w3.org/1999/xlink" x="0px" y="0px"
	 width="612px" height="792px" viewBox="0 0 612 792" enable-background="new 0 0 612 792" xml:space="preserve">
<g>
	<text transform="matrix(1 0 0 1 427.1621 384.0254)" fill="#FFFFFF" font-family="'HelveticaNeueLTStd-Md'" font-size="47.9536"> </text>
	<path d="M173.188,195.366v299.956h277.862V195.366H173.188z M177.769,490.741V384.405h268.702v106.336H177.769z"/>
	<g>
		<g>
			<path fill="#FFFFFF" d="M262.388,339.231c23.102-11.116,38.365-22.678,51.052-38.639l-1.826-1.453
				c-12.452,15.671-27.473,27.031-50.237,37.997L262.388,339.231z"/>
			<path fill="#FFFFFF" d="M326.486,297.835c-22.192,31.572-45.279,48.426-84.757,61.764c0.412-3.005,1.89-6.457,4.742-11.13
				l-1.624-1.594c-10.972,6.917-27.031,11.235-37.052,13.422c10.695-18.68,26.575-36.932,44.962-51.574
				c17.254-13.75,34.981-23.078,48.656-25.632l-0.42-2.289c-14.043,2.608-32.152,12.121-49.692,26.101
				c-19.342,15.415-35.962,34.778-46.794,54.508l-1.227,2.214l2.477-0.504c8.844-1.823,24.573-5.678,36.568-12.094
				c-1.698,3.25-3.029,6.759-3.043,10.226l-0.021,1.623l1.552-0.51c21.726-7.203,38.326-15.344,52.189-25.629
				c12.953-9.572,23.868-21.163,35.39-37.562L326.486,297.835z"/>
		</g>
		<g>
			<path fill="#FFFFFF" d="M318.973,283.846l-0.922-2.137l-0.145,0.057c-20.146,8.644-53.886,23.123-85.227,59.706l1.772,1.519
				c30.98-36.168,64.397-50.518,84.376-59.082L318.973,283.846z"/>
			<path fill="#FFFFFF" d="M421.656,221.365l-0.104-0.146c-1.626-2.286-4.604-3.417-8.859-3.384
				c-14.654,0.128-43.876,14.299-66.169,31.603c-18.292-6.257-38.153,9.811-48.513,20.139l1.197,1.937
				c4.21-1.48,8.77-2.667,11.496-3.383c0.582-0.144,1.078-0.281,1.453-0.37c3.229-0.887,7.852-0.272,10.266,4.3l6.365,9.39
				l-15.84,11.205l2.344,3.432l16.25-10.596l6.341,9.31l0.071,0.099c3.372,3.927,2.232,8.457,0.242,11.125
				c-0.242,0.334-0.546,0.734-0.898,1.22c-1.659,2.271-4.435,6.079-7.361,9.445l1.348,1.838
				c13.41-5.849,35.659-18.405,36.575-37.705c24.301-14.395,48.232-36.359,53.717-49.966
				C423.166,226.921,423.196,223.737,421.656,221.365 M324.451,270.928c-3.047-5.753-8.845-6.514-12.902-5.422
				c-0.371,0.096-0.863,0.215-1.427,0.367c-1.725,0.451-4.189,1.095-6.821,1.877c5.069-4.634,10.139-8.421,15.158-11.31
				c9.603-5.508,18.273-7.271,25.82-5.243c-7.965,6.398-14.926,13.159-19.795,19.774L324.451,270.928z M351.02,304.336
				c-4.521,3.599-9.924,6.935-16.083,9.937c1.706-2.172,3.192-4.213,4.246-5.658c0.349-0.468,0.639-0.876,0.877-1.19
				c2.504-3.366,3.927-9.032-0.295-13.992l-0.033-0.042c7.932-2.122,16.778-6.087,25.662-11.146
				C364.501,289.999,359.68,297.42,351.02,304.336 M375.584,272.095c-13.673,9.242-26.993,15.776-37.804,18.417l-4.288-6.29
				l28.342-18.474l-3.53-5.198l-27.614,19.544l-4.245-6.266c6.389-9.023,17.271-18.963,30.791-28.219l-0.421,0.346
				C365.092,248.134,374.984,262.209,375.584,272.095 M418.544,229.633c-2.623,6.526-10.096,15.523-20.468,24.893
				c-1.557-8.851-9.291-19.895-16.495-23.296c12.712-6.32,24.018-10.065,31.146-10.133c2.146-0.012,4.963,0.322,6.138,1.975
				l0.062,0.099C420.062,224.918,419.353,227.649,418.544,229.633"/>
		</g>
	</g>
	<rect x="177.822" y="384.366" fill="#FFFFFF" width="268.696" height="106.333"/>
	<g>
		<path d="M220.929,403.031h4.443l4.511,19.123h0.072l5.048-19.123h4.485l4.902,19.123h0.072l4.658-19.123h4.458l-6.902,25.011
			h-4.458l-5.01-19.121h-0.065l-5.115,19.121h-4.521L220.929,403.031z"/>
		<path d="M254.805,418.965c0-5.535,3.328-9.524,9.155-9.524c5.806,0,9.131,3.989,9.131,9.524c0,5.577-3.325,9.566-9.131,9.566
			C258.133,428.531,254.805,424.542,254.805,418.965z M269.102,418.965c0-3.112-1.576-6.371-5.141-6.371
			c-3.584,0-5.163,3.259-5.163,6.371c0,3.16,1.578,6.413,5.163,6.413C267.526,425.378,269.102,422.125,269.102,418.965z"/>
		<path d="M276.779,409.93h3.754v3.5h0.062c0.457-1.925,2.834-3.989,5.297-3.989c0.907,0,1.148,0.065,1.506,0.107v3.854
			c-0.563-0.074-1.16-0.182-1.725-0.182c-2.727,0-4.9,2.209-4.9,6.204v8.617h-3.995V409.93z"/>
		<path d="M289.571,403.031h3.996v14.221l7.218-7.322h4.899l-6.938,6.657l7.612,11.455h-4.882l-5.532-8.797l-2.378,2.318v6.479
			h-3.996V403.031z"/>
		<path d="M311.65,422.227c0.211,2.315,1.957,3.151,4.094,3.151c1.506,0,4.129-0.314,4.031-2.381
			c-0.104-2.107-3.018-2.349-5.927-3.015c-2.944-0.627-5.81-1.68-5.81-5.359c0-3.959,4.273-5.183,7.567-5.183
			c3.716,0,7.075,1.539,7.567,5.568h-4.163c-0.354-1.896-1.933-2.415-3.683-2.415c-1.16,0-3.287,0.284-3.287,1.851
			c0,1.963,2.936,2.25,5.875,2.915c2.906,0.662,5.854,1.719,5.854,5.291c0,4.309-4.347,5.881-8.093,5.881
			c-4.553,0-7.951-2.028-8.032-6.305H311.65z"/>
		<path d="M335.545,409.93h4.238l3.544,13.523h0.065l3.402-13.523h4.021l3.268,13.523h0.062l3.683-13.523h4.058l-5.666,18.112
			h-4.097l-3.366-13.448h-0.071l-3.33,13.448h-4.198L335.545,409.93z"/>
		<path d="M364.884,403.031h3.986v3.783h-3.986V403.031z M364.884,409.93h3.986v18.112h-3.986V409.93z"/>
		<path d="M371.714,409.93h3.017v-5.437h3.989v5.437h3.602v2.984h-3.602v9.662c0,1.649,0.144,2.487,1.922,2.487
			c0.564,0,1.128,0,1.68-0.137v3.083c-0.871,0.068-1.707,0.212-2.581,0.212c-4.175,0-4.944-1.62-5.01-4.631v-10.677h-3.017V409.93z"
			/>
		<path d="M385.515,403.031h4.001v9.276h0.068c0.977-1.644,3.051-2.867,5.422-2.867c3.93,0,6.419,2.095,6.419,6.162v12.439h-3.995
			v-11.384c-0.062-2.835-1.193-4.064-3.539-4.064c-2.665,0-4.375,2.098-4.375,4.766v10.683h-4.001V403.031z"/>
		<path d="M226.72,445.081v4.132h-5.46v20.883h-5.052v-20.883h-5.46v-4.132H226.72z"/>
		<path d="M229.457,470.096v-25.015h5.041v25.015H229.457z"/>
		<path d="M247.298,470.096v-25.015h5.043v20.891h8.928v4.124H247.298z"/>
		<path d="M263.656,457.021v-0.449c0-4.343,2.978-5.813,6.621-5.813c5.751,0,6.837,2.385,6.837,5.78v9.913
			c0,1.748,0.104,2.562,0.597,3.644h-4.631c-0.311-0.594-0.447-1.338-0.59-1.958h-0.072c-1.123,1.958-2.489,2.449-4.802,2.449
			c-3.369,0-4.553-2.879-4.553-5.4c0-3.533,1.436-4.959,4.769-5.881l2.727-0.738c1.438-0.385,1.931-0.942,1.931-2.208
			c0-1.435-0.636-2.307-2.244-2.307c-1.465,0-2.244,0.977-2.244,2.45v0.519H263.656z M272.489,460.675
			c-0.663,0.486-1.48,0.803-2.065,0.952c-1.958,0.408-2.736,1.357-2.736,3.037c0,1.442,0.528,2.63,1.823,2.63
			c1.292,0,2.979-0.842,2.979-2.91V460.675z"/>
		<path d="M290.571,467.894h-0.065c-1.029,1.85-2.775,2.693-4.804,2.693c-3.017,0-4.801-1.649-4.801-5.364v-13.975h4.836v12.995
			c0,1.892,0.624,2.626,2.065,2.626c1.644,0,2.561-1.015,2.561-3.115v-12.506h4.831v18.848h-4.623V467.894z"/>
		<path d="M298.735,451.248h4.625v2.209h0.072c1.015-1.854,2.769-2.698,4.804-2.698c3.014,0,4.792,1.647,4.792,5.359v13.978h-4.837
			v-12.993c0-1.892-0.621-2.631-2.065-2.631c-1.642,0-2.557,1.015-2.557,3.117v12.507h-4.834V451.248z"/>
		<path d="M325.645,458.046c0-1.823-0.353-3.79-2.166-3.79c-2.385,0-2.772,2.104-2.772,6.455c0,4.654,0.421,6.583,2.593,6.583
			c1.617,0,2.346-1.364,2.346-4.411h4.622c0,4.933-2.065,7.704-7.173,7.704c-4.838,0-7.225-2.351-7.225-9.912
			c0-7.753,3.193-9.916,7.645-9.916c4.452,0,6.753,2.838,6.753,7.287H325.645z"/>
		<path d="M333.113,445.081h4.831v8.093h0.071c0.914-1.608,2.558-2.415,4.59-2.415c3.022,0,4.798,1.647,4.798,5.359v13.978h-4.834
			v-12.993c0-1.892-0.63-2.631-2.065-2.631c-1.646,0-2.56,1.015-2.56,3.117v12.507h-4.831V445.081z"/>
		<path d="M351.796,445.081h8.817c5.124,0,6.881,3.747,6.881,7.495c0,5.184-3.196,7.535-7.961,7.535h-2.701v9.984h-5.036V445.081z
			 M356.832,456.396h2.25c1.994,0,3.366-1.185,3.366-3.745c0-2.449-0.99-3.86-3.506-3.86h-2.11V456.396z"/>
		<path d="M368.655,457.021v-0.449c0-4.343,2.969-5.813,6.615-5.813c5.747,0,6.833,2.385,6.833,5.78v9.913
			c0,1.748,0.107,2.562,0.591,3.644h-4.616c-0.322-0.594-0.463-1.338-0.605-1.958h-0.065c-1.122,1.958-2.485,2.449-4.801,2.449
			c-3.36,0-4.554-2.879-4.554-5.4c0-3.533,1.443-4.959,4.762-5.881l2.736-0.738c1.43-0.385,1.922-0.942,1.922-2.208
			c0-1.435-0.624-2.307-2.229-2.307c-1.479,0-2.25,0.977-2.25,2.45v0.519H368.655z M377.473,460.675
			c-0.656,0.486-1.465,0.803-2.059,0.952c-1.964,0.408-2.736,1.357-2.736,3.037c0,1.442,0.531,2.63,1.82,2.63
			c1.292,0,2.975-0.842,2.975-2.91V460.675z"/>
		<path d="M395.562,468.102h-0.08c-1.042,1.742-2.373,2.485-4.265,2.485c-3.963,0-5.78-2.909-5.78-9.912
			c0-7.01,1.817-9.916,5.78-9.916c1.82,0,3.05,0.731,4.064,2.241h0.071v-7.919h4.83v25.015h-4.621V468.102z M392.789,466.869
			c2.143,0,2.563-2.101,2.563-6.194c0-4.103-0.421-6.203-2.563-6.203c-2.106,0-2.519,2.101-2.519,6.203
			C390.271,464.769,390.683,466.869,392.789,466.869z"/>
		<path d="M405.265,447.208h-3.432v-1.155h8.245v1.155h-3.44v9.149h-1.373V447.208z"/>
		<path d="M411.233,446.053h1.88l3.246,8.663l3.253-8.663h1.882v10.305h-1.297v-8.573h-0.03l-3.22,8.573h-1.163l-3.224-8.573h-0.029
			v8.573h-1.298V446.053z"/>
	</g>
</g>
</svg>
